<?xml version="1.0" encoding="utf-8"?>
<!-- Generator: Adobe Illustrator 19.2.1, SVG Export Plug-In . SVG Version: 6.00 Build 0)  -->
<svg version="1.1" id="Слой_1" xmlns="http://www.w3.org/2000/svg" xmlns:xlink="http://www.w3.org/1999/xlink" x="0px" y="0px"
	 width="350.6px" height="83.7px" viewBox="0 0 350.6 83.7" style="enable-background:new 0 0 350.6 83.7;" xml:space="preserve">
<style type="text/css">
	.st0{clip-path:url(#SVGID_2_);fill:#FFFFFF;}
	.st1{clip-path:url(#SVGID_2_);fill:#EFAA2E;}
	.st2{clip-path:url(#SVGID_2_);fill:#F4DD38;}
	.st3{clip-path:url(#SVGID_2_);fill:#CCCCCC;}
</style>
<g>
	<defs>
		<rect id="SVGID_1_" width="350.6" height="83.7"/>
	</defs>
	<clipPath id="SVGID_2_">
		<use xlink:href="#SVGID_1_"  style="overflow:visible;"/>
	</clipPath>
	<path class="st0" d="M94.5,0L83.7,18.7L64.3,52.3l-6.8,11.8l-3.6,6.3c-0.1,0.2-0.2,0.4-0.4,0.6C49,78.3,41,82.8,32.4,82.8H0
		l10.8-18.7h22.4c1.8-0.1,3.3-1.1,4.1-2.5c0,0,0,0,0-0.1l26.3-45.7H43.3L52.5,0H94.5z"/>
	<path class="st1" d="M71.4,64.6L60.3,82.8L53.5,71c0.1-0.2,0.2-0.4,0.4-0.6l3.6-6.3l6.8-11.8L71.4,64.6z"/>
	<polygon class="st2" points="119.6,18.7 82.6,82.8 60.3,82.8 71.4,64.6 73.3,61.5 108.8,0 114.5,9.8 	"/>
	<polygon class="st1" points="130.9,18.7 111.4,52.3 111.4,52.4 100.7,71 100.6,71 93.9,82.8 82.6,82.8 119.6,18.7 114.4,9.8 
		120.1,0 	"/>
	<polygon class="st3" points="118.5,64.5 107.5,82.7 100.7,71 111.4,52.4 	"/>
	<polygon class="st0" points="178.6,0 130.9,82.8 107.4,82.8 107.4,82.7 118.5,64.5 120.4,61.5 155.9,0 	"/>
	<path class="st0" d="M193.1,37.3c-3.4-3.2-7.9-4.8-13.4-4.8c-13,0-23.2,11.2-23.2,25.6s10.2,25.6,23.2,25.6
		c5.6,0,10.1-1.6,13.4-4.8v3.5h15.5V33.9h-15.5V37.3z M182.5,69c-6.3,0-10.6-4.4-10.6-10.9c0-6.5,4.3-10.9,10.6-10.9
		c6.3,0,10.6,4.4,10.6,10.9C193.1,64.6,188.8,69,182.5,69"/>
	<rect x="217.6" y="12.2" class="st0" width="15.5" height="70.2"/>
	<rect x="242.2" y="12.2" class="st0" width="15.5" height="70.2"/>
	<path class="st0" d="M290.4,32.6c-14.9,0-25.8,10.8-25.8,25.6c0,15.1,11,25.6,26.8,25.6c9.2,0,16.3-3.4,21.1-10l0.4-0.6L300.5,66
		l-0.4,0.4c-1.9,2.1-5.1,3.4-8.6,3.4c-5.3,0-8.7-1.7-10.4-5.3h33.1l0.1-0.5c0.4-1.8,0.6-3.8,0.6-5.8C315,43.5,304.4,32.6,290.4,32.6
		 M290.3,46.4c2.7,0,7.2,0.8,9.1,6.2h-18.5C282.3,48.5,285.5,46.4,290.3,46.4"/>
	<path class="st0" d="M350.6,48.8V33.9h-9.7V20.4l-15.5,4.6v8.8h-7.5v14.9h7.5v16.1c0,6.8,1.4,11.2,4.6,14c2.9,2.6,7.3,3.9,13.6,3.9
		c2,0,4.1-0.1,6.4-0.4l0.6-0.1V68.2l-0.7,0c-4,0.2-6.9,0.2-8.2-1c-0.6-0.5-0.8-1.3-0.8-2.4V48.8H350.6z"/>
</g>
</svg>
